#tb 0: 1/44100
#media_type 0: audio
#codec_id 0: pcm_s16le
#sample_rate 0: 44100
#channel_layout_name 0: stereo
0,        -44,        -44,     4096,    16384, 0xf6e464c5
0,       4052,       4052,     4096,    16384, 0xf906dd99
0,       8148,       8148,     4096,    16384, 0xb16eed9b
0,      12244,      12244,     4096,    16384, 0xfbcce8b9
0,      16340,      16340,     4096,    16384, 0xc113e021
0,      20436,      20436,     4096,    16384, 0xc0b3f917
0,      24532,      24532,     4096,    16384, 0xaf25c727
0,      28628,      28628,     4096,    16384, 0x62fad413
0,      32724,      32724,     4096,    16384, 0xfb04d0c3
0,      36820,      36820,     4096,    16384, 0x03b5dd87
0,      40916,      40916,     4096,    16384, 0x50bfd8b5
0,      45012,      45012,     4096,    16384, 0xcbe2d669
0,      49108,      49108,     4096,    16384, 0x2228e9e5
0,      53204,      53204,     4096,    16384, 0x39557edd
0,      57300,      57300,     4096,    16384, 0x3c40fc01
0,      61396,      61396,     4096,    16384, 0xcda2ccad
0,      65492,      65492,     4096,    16384, 0x7142f38d
0,      69588,      69588,     4096,    16384, 0x1854bb09
0,      73684,      73684,     4096,    16384, 0xc5c014c0
0,      77780,      77780,     4096,    16384, 0x06460b66
0,      81876,      81876,     4096,    16384, 0xcfdb4bd0
0,      85972,      85972,     4096,    16384, 0xc304e2f1
0,      90068,      90068,     4096,    16384, 0x18a17203
0,      94164,      94164,     4096,    16384, 0xa5ddfc87
0,      98260,      98260,     4096,    16384, 0xb49ccf7b
0,     102356,     102356,     4096,    16384, 0x9a93e2ff
0,     106452,     106452,     4096,    16384, 0x2a539e11
0,     110548,     110548,     4096,    16384, 0x24e1dad3
0,     114644,     114644,     4096,    16384, 0x38e4ddaf
0,     118740,     118740,     4096,    16384, 0x519cef85
0,     122836,     122836,     4096,    16384, 0x3549d107
0,     126932,     126932,     4096,    16384, 0x9007a603
0,     131028,     131028,     4096,    16384, 0x0e81cf8f
0,     135124,     135124,     4096,    16384, 0x6f77efe7
0,     139220,     139220,     4096,    16384, 0x5b18eea9
0,     143316,     143316,     4096,    16384, 0xc661ce4a
0,     147412,     147412,     4096,    16384, 0x7b0be25b
0,     151508,     151508,     4096,    16384, 0xbbacda71
0,     155604,     155604,     4096,    16384, 0x4a70eb2b
0,     159700,     159700,     4096,    16384, 0xf69bfae5
0,     163796,     163796,     4096,    16384, 0x5ac612c5
0,     167892,     167892,     4096,    16384, 0x9981d682
0,     171988,     171988,     4096,    16384, 0xa5e4a792
0,     176084,     176084,     4096,    16384, 0x85c0e34c
0,     180180,     180180,     4096,    16384, 0xcb8bdba1
0,     184276,     184276,     4096,    16384, 0xe1607b00
0,     188372,     188372,     4096,    16384, 0xf5a8094d
0,     192468,     192468,     4096,    16384, 0xb3e5a407
0,     196564,     196564,     4096,    16384, 0x6a71fe87
0,     200660,     200660,     4096,    16384, 0x444f706e
0,     204756,     204756,     4096,    16384, 0x8dabd401
0,     208852,     208852,     4096,    16384, 0xccb8c59e
0,     212948,     212948,     4096,    16384, 0xc5fde5f8
0,     217044,     217044,     4096,    16384, 0xbe84724b
0,     221140,     221140,     4096,    16384, 0x6bdae335
0,     225236,     225236,     4096,    16384, 0xaf24caa1
0,     229332,     229332,     4096,    16384, 0xd201ca42
0,     233428,     233428,     4096,    16384, 0x53d28348
0,     237524,     237524,     4096,    16384, 0xb1e6e172
0,     241620,     241620,     4096,    16384, 0x3c54c681
0,     245716,     245716,     4096,    16384, 0x02fce5fa
0,     249812,     249812,     4096,    16384, 0x6fd27249
0,     253908,     253908,     4096,    16384, 0x87f7e330
0,     258004,     258004,     4096,    16384, 0x6c79caaa
0,     262100,     262100,     2456,     9824, 0x122cfe1f
0,     262144,     262144,       44,      176, 0x882f5975
